# xmcd CD database file
#
# Track frame offsets:
#	150
#	51202
#	74773
#	88752
#	151555
#	191867
#
# Disc length: 3183 seconds
#
# Revision: 0
# Processed by: cddbd v1.5.2PL0 Copyright (c) Steve Scherf et al.
# Submitted via: CDex 1.51
#
DISCID=4f0c6d06
DTITLE=Adam Rudolph - Go: Organic Orchestra - In The Garden [CD2]
DYEAR=2003
DGENRE=Jazz
TTITLE0=Amanita
TTITLE1=Formative Impulses - Branch
TTITLE2=Formative Impulses - Rain
TTITLE3=Formative Impulses - Seed
TTITLE4=Moisture Droplet
TTITLE5=Chaotic Attractors
EXTD=YEAR: 2003
EXTT0=
EXTT1=
EXTT2=
EXTT3=
EXTT4=
EXTT5=
PLAYORDER=
